<svg width="30" height="20" viewBox="0 0 30 20" fill="none" xmlns="http://www.w3.org/2000/svg">
<path d="M3 20C2.175 20 1.469 19.7205 0.882 19.1614C0.295 18.6024 0.001 17.9295 0 17.1429V2.85714C0 2.07143 0.294 1.39905 0.882 0.84C1.47 0.280952 2.176 0.000952381 3 0H27C27.825 0 28.5315 0.28 29.1195 0.84C29.7075 1.4 30.001 2.07238 30 2.85714V17.1429C30 17.9286 29.7065 18.6014 29.1195 19.1614C28.5325 19.7214 27.826 20.0009 27 20H3ZM9 15.7143H21V12.8571H9V15.7143ZM4.5 11.4286H7.5V8.57143H4.5V11.4286ZM9 11.4286H12V8.57143H9V11.4286ZM13.5 11.4286H16.5V8.57143H13.5V11.4286ZM18 11.4286H21V8.57143H18V11.4286ZM22.5 11.4286H25.5V8.57143H22.5V11.4286ZM4.5 7.14286H7.5V4.28571H4.5V7.14286ZM9 7.14286H12V4.28571H9V7.14286ZM13.5 7.14286H16.5V4.28571H13.5V7.14286ZM18 7.14286H21V4.28571H18V7.14286ZM22.5 7.14286H25.5V4.28571H22.5V7.14286Z" fill="white"/>
</svg>
