<svg width="25" height="25" viewBox="0 0 25 25" fill="none" xmlns="http://www.w3.org/2000/svg">
<path d="M16.963 2.16118e-07C15.7083 -0.000287549 14.4709 0.293362 13.3501 0.857419C12.2293 1.42148 11.2562 2.24025 10.5087 3.24814C9.7613 4.25603 9.26032 5.425 9.04596 6.66137C8.83159 7.89775 8.9098 9.16715 9.27431 10.3679L0 19.6429V25H5.35674L14.6311 15.725C15.7362 16.0605 16.9008 16.1538 18.0453 15.9985C19.1897 15.8432 20.2873 15.4429 21.2631 14.825C22.239 14.2072 23.0702 13.3861 23.7 12.4179C24.3299 11.4498 24.7436 10.3571 24.9131 9.21458C25.0825 8.07201 25.0037 6.90634 24.6819 5.797C24.3601 4.68767 23.803 3.66074 23.0485 2.78622C22.2939 1.91169 21.3598 1.21011 20.3096 0.729295C19.2595 0.248481 18.118 -0.000267655 16.963 2.16118e-07ZM16.963 14.2857C16.3483 14.2855 15.737 14.1947 15.1489 14.0161L14.1248 13.7054L13.3686 14.4616L10.5287 17.3018L9.29752 16.0714L8.03512 17.3339L9.26627 18.5652L7.85031 19.9812L6.61915 18.75L5.35674 20.0125L6.5879 21.2437L4.61751 23.2143H1.78558V20.3821L10.5367 11.6304L11.2938 10.8741L10.9831 9.85C10.6015 8.59196 10.6263 7.24561 11.054 6.00247C11.4816 4.75933 12.2903 3.6827 13.3651 2.92574C14.4399 2.16877 15.726 1.77001 17.0404 1.78619C18.3549 1.80236 19.6308 2.23264 20.6866 3.01582C21.7424 3.799 22.5244 4.8952 22.9214 6.14848C23.3183 7.40177 23.31 8.74832 22.8975 9.99659C22.4851 11.2449 21.6896 12.3313 20.6241 13.1013C19.5587 13.8714 18.2776 14.2858 16.963 14.2857Z" fill="white"/>
</svg>
