<svg width="22" height="25" viewBox="0 0 22 25" fill="none" xmlns="http://www.w3.org/2000/svg">
<path d="M21.751 23.4788C20.1508 20.191 17.6849 17.8335 14.8071 16.7159C16.2306 15.7088 17.3365 14.1741 17.9551 12.3477C18.5737 10.5213 18.6707 8.50399 18.2313 6.60567C17.7919 4.70736 16.8402 3.03296 15.5226 1.83963C14.2049 0.646293 12.5941 0 10.9375 0C9.28088 0 7.67006 0.646293 6.35241 1.83963C5.03476 3.03296 4.08314 4.70736 3.64369 6.60567C3.20425 8.50399 3.30127 10.5213 3.91986 12.3477C4.53845 14.1741 5.64441 15.7088 7.06789 16.7159C4.1901 17.8322 1.72419 20.1897 0.124017 23.4788C0.0653361 23.5925 0.0264134 23.719 0.00954552 23.8509C-0.00732237 23.9828 -0.00179378 24.1174 0.0258051 24.2467C0.053404 24.376 0.102514 24.4974 0.170238 24.6038C0.237962 24.7102 0.322927 24.7993 0.420122 24.8661C0.517316 24.9328 0.62477 24.9757 0.736145 24.9923C0.847519 25.0088 0.960558 24.9987 1.06859 24.9625C1.17662 24.9263 1.27746 24.8648 1.36516 24.7815C1.45285 24.6983 1.52563 24.595 1.57919 24.4777C3.55865 20.412 7.05738 17.9846 10.9375 17.9846C14.8176 17.9846 18.3163 20.412 20.2958 24.4777C20.3494 24.595 20.4221 24.6983 20.5098 24.7815C20.5975 24.8648 20.6984 24.9263 20.8064 24.9625C20.9144 24.9987 21.0275 25.0088 21.1389 24.9923C21.2502 24.9757 21.3577 24.9328 21.4549 24.8661C21.5521 24.7993 21.637 24.7102 21.7048 24.6038C21.7725 24.4974 21.8216 24.376 21.8492 24.2467C21.8768 24.1174 21.8823 23.9828 21.8655 23.8509C21.8486 23.719 21.8097 23.5925 21.751 23.4788ZM5.05375 8.99397C5.05375 7.61095 5.39883 6.25899 6.04534 5.10906C6.69186 3.95912 7.61077 3.06285 8.68589 2.53359C9.761 2.00433 10.944 1.86585 12.0854 2.13567C13.2267 2.40548 14.2751 3.07147 15.0979 4.04941C15.9208 5.02735 16.4812 6.27333 16.7082 7.62977C16.9352 8.98622 16.8187 10.3922 16.3734 11.67C15.928 12.9477 15.1739 14.0398 14.2063 14.8082C13.2388 15.5765 12.1012 15.9866 10.9375 15.9866C9.37755 15.9847 7.88196 15.2473 6.77891 13.9363C5.67585 12.6254 5.05542 10.8479 5.05375 8.99397Z" fill="white"/>
</svg>
